<svg class="svg-icon" style="width: 1em; height: 1em;vertical-align: middle;fill: currentColor;overflow: hidden;" viewBox="0 0 1024 1024" version="1.1" xmlns="http://www.w3.org/2000/svg"><path d="M782.96 751.62c-11.76-16.8-36.7-23.04-56.84-14.26l-126.64 52.24c-6.24-15.82-21.84-26.92-40.08-26.92h-113.9c-16.88 0-44.52-4.92-60.44-10.74l-0.64-0.26c-0.08-0.02-0.14-0.06-0.22-0.08-20.46-7.54-51.86-12.02-83.98-12.02h-47.64v-11.3c0-15.5-12.62-28.12-28.12-28.12H199.72v-9.64c0-5.52-4.48-10-10-10H109.68c-5.52 0-10 4.48-10 10V985c0 5.52 4.48 10 10 10h80.04c5.52 0 10-4.48 10-10v-13.34h24.74c15.5 0 28.12-12.62 28.12-28.12v-14.44l209.54 48.62c4.6 1 9.68 1.48 14.98 1.48 17.04 0 36.38-4.88 49.08-13.06l244.18-160.28c9.54-6.16 16.22-15.8 18.32-26.46 1.94-9.86-0.1-19.72-5.72-27.78zM179.72 975H119.68V700.52h60.04V975z m52.86-31.46c0 4.48-3.64 8.12-8.12 8.12H199.72V720.16h24.74c4.48 0 8.12 3.64 8.12 8.12v215.26z m536.48-168c-1.06 5.36-4.52 10.28-9.6 13.54l-244.18 160.3c-12.04 7.74-34.88 11.86-48.76 8.84l-213.94-49.64v-149h47.64c29.84 0 58.6 4.02 76.96 10.74l0.64 0.26c0.08 0.02 0.16 0.06 0.22 0.08 18.02 6.62 48.28 12.02 67.46 12.02h113.9c12.12 0 22.42 9.48 23 21.22 0.02 0.32 0.02 0.66 0.02 0.98 0 1.38-0.14 2.8-0.42 4.22-2.1 10.4-11.6 17.96-22.6 17.96h-113.68c-3.78-0.14-34.86-0.6-60.68 21.7a10.028 10.028 0 0 0-1.04 14.12 10.034 10.034 0 0 0 7.58 3.46c2.32 0 4.64-0.8 6.54-2.44 20.68-17.86 46.6-16.86 46.82-16.84h114.46c20.48 0 38.22-14.3 42.2-34.04 0.2-0.94 0.3-1.9 0.42-2.84l131.82-54.38c0.08-0.02 0.14-0.06 0.2-0.08 11.36-4.98 26.24-1.62 32.52 7.36 2.5 3.56 3.38 7.98 2.5 12.46z" fill="#23130D" /><path d="M119.68 700.52h60.04V975H119.68z" fill="#3594BF" /><path d="M232.58 728.28v215.26c0 4.48-3.64 8.12-8.12 8.12H199.72V720.16h24.74c4.48 0 8.12 3.64 8.12 8.12z" fill="#E1E1E5" /><path d="M199.72 720.16h16.42v231.5h-16.42z" opacity=".2" /><path d="M769.06 775.54c-1.06 5.36-4.52 10.28-9.6 13.54l-244.18 160.3c-12.04 7.74-34.88 11.86-48.76 8.84l-213.94-49.64v-149h47.64c29.84 0 58.6 4.02 76.96 10.74l0.64 0.26c0.08 0.02 0.16 0.06 0.22 0.08 18.02 6.62 48.28 12.02 67.46 12.02h113.9c12.12 0 22.42 9.48 23 21.22 0.02 0.32 0.02 0.66 0.02 0.98 0 1.38-0.14 2.8-0.42 4.22-2.1 10.4-11.6 17.96-22.6 17.96h-113.68c-3.78-0.14-34.86-0.6-60.68 21.7a10.028 10.028 0 0 0-1.04 14.12 10.034 10.034 0 0 0 7.58 3.46c2.32 0 4.64-0.8 6.54-2.44 20.68-17.86 46.6-16.86 46.82-16.84h114.46c20.48 0 38.22-14.3 42.2-34.04 0.2-0.94 0.3-1.9 0.42-2.84l131.82-54.38c0.08-0.02 0.14-0.06 0.2-0.08 11.36-4.98 26.24-1.62 32.52 7.36 2.5 3.56 3.38 7.98 2.5 12.46z" fill="#F8D3C9" /><path d="M914.32 29h-80.04c-5.52 0-10 4.48-10 10v13.34h-24.74c-15.5 0-28.12 12.62-28.12 28.12v14.44L561.88 46.28c-19.3-4.2-47.4 0.86-64.04 11.58l-244.2 160.28c-9.54 6.16-16.22 15.8-18.32 26.46-1.94 9.86 0.1 19.72 5.72 27.78 8.16 11.66 22.68 18.24 37.52 18.22 6.54 0 13.16-1.26 19.32-3.96l126.64-52.24c6.26 15.82 21.84 26.92 40.08 26.92h113.9c16.88 0 44.52 4.92 60.44 10.74l0.64 0.26c0.08 0.02 0.14 0.06 0.22 0.08 20.46 7.52 51.86 12.02 83.98 12.02h47.64v11.3c0 15.5 12.62 28.12 28.12 28.12h24.74v9.62c0 5.54 4.48 10 10 10h80.04c5.52 0 10-4.46 10-10V39c0-5.52-4.48-10-10-10z m-142.9 235.42h-47.64c-29.84 0-58.58-4.02-76.96-10.74l-0.64-0.26c-0.08-0.02-0.16-0.06-0.22-0.08-18.02-6.64-48.28-12.02-67.46-12.02H464.6c-12.12 0-22.42-9.5-23-21.28 0-0.3-0.02-0.62-0.02-0.92 0-1.42 0.14-2.8 0.42-4.22 2.1-10.42 11.6-17.98 22.6-17.98h113.68c3.8 0.16 34.88 0.62 60.68-21.7 4.18-3.6 4.64-9.92 1.04-14.1a10.01 10.01 0 0 0-14.12-1.02c-20.66 17.86-46.6 16.86-46.82 16.84-0.18 0-0.38-0.02-0.56-0.02H464.6c-20.48 0-38.22 14.32-42.2 34.04-0.2 0.94-0.3 1.9-0.42 2.86l-131.82 54.38c-0.06 0.02-0.14 0.06-0.2 0.08-11.36 4.98-26.24 1.6-32.52-7.36-2.5-3.56-3.38-7.98-2.5-12.46 1.06-5.36 4.52-10.28 9.6-13.54l244.2-160.3c12.02-7.74 34.86-11.86 48.74-8.84l213.94 49.64v149z m52.86 39.42h-24.74c-4.48 0-8.12-3.64-8.12-8.12v-21.26c0-0.02 0.02-0.02 0.02-0.04s-0.02-0.02-0.02-0.04V80.46c0-4.48 3.64-8.12 8.12-8.12h24.74v231.5z m80.04 19.62h-60.04V49h60.04v274.46z" fill="#23130D" /><path d="M824.28 72.34v231.5h-24.74c-4.48 0-8.12-3.64-8.12-8.12v-21.26c0-0.02 0.02-0.02 0.02-0.04s-0.02-0.02-0.02-0.04V80.46c0-4.48 3.64-8.12 8.12-8.12h24.74z" fill="#E1E1E5" /><path d="M807.86 72.34h16.42v231.5h-16.42z" opacity=".2" /><path d="M844.28 49h60.04v274.46h-60.04z" fill="#3594BF" /><path d="M844.28 49h14.054v274.46h-14.054z" fill="#FFFFFF" opacity=".4" /><path d="M890.266 49h14.054v274.46h-14.054z" opacity=".2" /><path d="M771.42 115.42v149h-47.64c-29.84 0-58.58-4.02-76.96-10.74l-0.64-0.26c-0.08-0.02-0.16-0.06-0.22-0.08-18.02-6.64-48.28-12.02-67.46-12.02H464.6c-12.12 0-22.42-9.5-23-21.28 0-0.3-0.02-0.62-0.02-0.92 0-1.42 0.14-2.8 0.42-4.22 2.1-10.42 11.6-17.98 22.6-17.98h113.68c3.8 0.16 34.88 0.62 60.68-21.7 4.18-3.6 4.64-9.92 1.04-14.1a10.01 10.01 0 0 0-14.12-1.02c-20.66 17.86-46.6 16.86-46.82 16.84-0.18 0-0.38-0.02-0.56-0.02H464.6c-20.48 0-38.22 14.32-42.2 34.04-0.2 0.94-0.3 1.9-0.42 2.86l-131.82 54.38c-0.06 0.02-0.14 0.06-0.2 0.08-11.36 4.98-26.24 1.6-32.52-7.36-2.5-3.56-3.38-7.98-2.5-12.46 1.06-5.36 4.52-10.28 9.6-13.54l244.2-160.3c12.02-7.74 34.86-11.86 48.74-8.84l213.94 49.64z" fill="#F8D3C9" /><path d="M771.42 115.42v33.26L557.48 99.04c-13.88-3.02-36.72 1.1-48.74 8.84l-243.28 159.7c-3.26-1.62-6.06-3.86-8.02-6.66-2.5-3.56-3.38-7.98-2.5-12.46 1.06-5.36 4.52-10.28 9.6-13.54l244.2-160.3c12.02-7.74 34.86-11.86 48.74-8.84l213.94 49.64zM252.524 908.58v-33.26l213.94 49.64c13.88 3.02 36.72-1.1 48.74-8.84l243.28-159.7c3.26 1.62 6.06 3.86 8.02 6.66 2.5 3.56 3.38 7.98 2.5 12.46-1.06 5.36-4.52 10.28-9.6 13.54l-244.2 160.3c-12.02 7.74-34.86 11.86-48.74 8.84l-213.94-49.64z" opacity=".2" /><path d="M674.78 351.74c-42.92-42.94-100.02-66.58-160.74-66.58-60.72 0-117.82 23.64-160.76 66.58-42.94 42.92-66.58 100.02-66.58 160.76s23.64 117.84 66.58 160.76c42.94 42.94 100.04 66.58 160.76 66.58 60.7 0 117.78-23.64 160.74-66.58 42.94-42.92 66.6-100.02 66.6-160.76s-23.64-117.84-66.6-160.76z m-307.36 14.14c21.96-21.96 48-38.38 76.38-48.58-9.96 10-19.2 22.22-27.48 36.5-23.28 40.18-36.66 92.66-38.1 148.7h-71.28c2.42-51.64 23.68-99.84 60.48-136.62z m0 293.24c-36.8-36.78-58.06-84.98-60.48-136.62h71.28c1.44 56.06 14.82 108.52 38.1 148.7 8.28 14.3 17.52 26.5 27.48 36.5-28.38-10.2-54.42-26.62-76.38-48.58z m136.62 59.92c-26.24-4.1-50.94-24.28-70.42-57.88-21.56-37.2-34-86.12-35.4-138.66h105.82v196.54z m0-216.54h-105.82c1.4-52.54 13.84-101.46 35.4-138.66 19.48-33.6 44.18-53.78 70.42-57.88v196.54z m156.6-136.62c36.8 36.8 58.06 84.98 60.5 136.62h-71.3c-1.42-56.04-14.8-108.52-38.08-148.7-8.3-14.3-17.54-26.5-27.5-36.5 28.4 10.2 54.42 26.62 76.38 48.58z m-136.6-59.92c26.24 4.1 50.94 24.28 70.4 57.88 21.56 37.2 34 86.12 35.42 138.66h-105.82v-196.54z m0 413.08v-196.54h105.82c-1.42 52.54-13.86 101.46-35.42 138.66-19.46 33.6-44.16 53.78-70.4 57.88z m136.6-59.92c-21.96 21.96-47.98 38.38-76.36 48.58 9.96-10 19.18-22.2 27.48-36.5 23.28-40.18 36.66-92.64 38.08-148.7h71.3c-2.44 51.64-23.7 99.84-60.5 136.62z" fill="#23130D" /><path d="M721.14 522.5c-2.44 51.64-23.7 99.84-60.5 136.62-21.96 21.96-47.98 38.38-76.36 48.58 9.96-10 19.18-22.2 27.48-36.5 23.28-40.18 36.66-92.64 38.08-148.7h71.3zM629.86 522.5c-1.42 52.54-13.86 101.46-35.42 138.66-19.46 33.6-44.16 53.78-70.4 57.88v-196.54h105.82zM504.04 522.5v196.54c-26.24-4.1-50.94-24.28-70.42-57.88-21.56-37.2-34-86.12-35.4-138.66h105.82zM443.8 707.7c-28.38-10.2-54.42-26.62-76.38-48.58-36.8-36.78-58.06-84.98-60.48-136.62h71.28c1.44 56.06 14.82 108.52 38.1 148.7 8.28 14.3 17.52 26.5 27.48 36.5zM443.8 317.3c-9.96 10-19.2 22.22-27.48 36.5-23.28 40.18-36.66 92.66-38.1 148.7h-71.28c2.42-51.64 23.68-99.84 60.48-136.62 21.96-21.96 48-38.38 76.38-48.58zM504.04 305.96v196.54h-105.82c1.4-52.54 13.84-101.46 35.4-138.66 19.48-33.6 44.18-53.78 70.42-57.88z" fill="#3594BF" /><path d="M443.8 707.7c-28.38-10.2-54.42-26.62-76.38-48.58-36.8-36.78-58.06-84.98-60.48-136.62h22.68c2.42 51.64 23.68 99.84 60.48 136.62 11.58 11.58 24.3 21.62 37.88 30 5.02 6.86 10.32 13.06 15.82 18.58zM443.8 317.3c-5.5 5.52-10.78 11.72-15.8 18.58-13.6 8.38-26.32 18.42-37.9 30-36.8 36.78-58.06 84.98-60.48 136.62h-22.68c2.42-51.64 23.68-99.84 60.48-136.62 21.96-21.96 48-38.38 76.38-48.58zM504.04 706.9v12.14c-26.24-4.1-50.94-24.28-70.42-57.88-21.56-37.2-34-86.12-35.4-138.66h30c1.42 52.54 13.86 101.46 35.42 138.66 11.8 20.38 25.56 35.84 40.4 45.74zM504.04 305.96v12.14c-14.84 9.9-28.6 25.36-40.4 45.74-21.56 37.2-34 86.12-35.42 138.66h-30c1.4-52.54 13.84-101.46 35.4-138.66 19.48-33.6 44.18-53.78 70.42-57.88z" fill="#FFFFFF" opacity=".4" /><path d="M629.86 502.5h-105.82v-196.54c26.24 4.1 50.94 24.28 70.4 57.88 21.56 37.2 34 86.12 35.42 138.66zM721.14 502.5h-71.3c-1.42-56.04-14.8-108.52-38.08-148.7-8.3-14.3-17.54-26.5-27.5-36.5 28.4 10.2 54.42 26.62 76.38 48.58 36.8 36.8 58.06 84.98 60.5 136.62z" fill="#3594BF" /><path d="M584.28 707.7c28.38-10.2 54.42-26.62 76.38-48.58 36.8-36.78 58.06-84.98 60.48-136.62h-22.68c-2.42 51.64-23.68 99.84-60.48 136.62a208.226 208.226 0 0 1-37.88 30c-5.02 6.86-10.32 13.06-15.82 18.58zM584.28 317.3c5.5 5.52 10.78 11.72 15.8 18.58 13.6 8.38 26.32 18.42 37.9 30 36.8 36.78 58.06 84.98 60.48 136.62h22.68c-2.42-51.64-23.68-99.84-60.48-136.62-21.96-21.96-48-38.38-76.38-48.58zM524.04 706.9v12.14c26.24-4.1 50.94-24.28 70.42-57.88 21.56-37.2 34-86.12 35.4-138.66h-30c-1.42 52.54-13.86 101.46-35.42 138.66-11.8 20.38-25.56 35.84-40.4 45.74zM524.04 305.96v12.14c14.84 9.9 28.6 25.36 40.4 45.74 21.56 37.2 34 86.12 35.42 138.66h30c-1.4-52.54-13.84-101.46-35.4-138.66-19.48-33.6-44.18-53.78-70.42-57.88z" opacity=".4" /><path d="M165.666 700.53h14.054v274.46h-14.054z" fill="#FFFFFF" opacity=".4" /><path d="M119.68 700.53h14.054v274.46H119.68z" opacity=".2" /></svg>